<?xml version="1.0" encoding="UTF-8" standalone="no"?>
<!DOCTYPE svg PUBLIC "-//W3C//DTD SVG 20010904//EN"
              "http://www.w3.org/TR/2001/REC-SVG-20010904/DTD/svg10.dtd">

<svg xmlns="http://www.w3.org/2000/svg"
     width="1.53333in" height="1.53667in"
     viewBox="0 0 460 461">
  <path id="Selection #1"
        fill="black" stroke="black" stroke-width="1"
        d="M 360.00,264.00
           C 350.19,271.40 337.12,286.96 324.00,285.66
             306.66,283.94 297.45,265.67 306.81,251.01
             310.53,245.20 320.48,237.46 326.00,232.73
             326.00,232.73 361.00,202.92 361.00,202.92
             368.94,196.28 374.94,189.41 386.00,189.04
             397.15,188.67 402.19,194.78 408.37,203.00
             408.37,203.00 443.63,251.00 443.63,251.00
             449.81,259.28 457.68,267.96 456.90,279.00
             455.72,295.93 435.85,304.45 422.09,295.52
             416.29,291.76 409.11,279.95 404.00,274.00
             400.32,290.13 392.50,307.86 384.00,322.00
             345.95,385.29 273.48,418.03 201.00,406.25
             170.68,401.31 143.31,389.09 119.00,370.35
             110.14,363.52 97.57,354.08 97.04,342.00
             96.26,324.21 112.94,312.70 129.00,320.33
             134.00,322.70 145.71,333.95 152.00,338.62
             163.20,346.94 179.55,354.74 193.00,358.57
             245.90,373.67 299.04,356.08 334.25,314.00
             345.73,300.27 356.03,281.56 360.00,264.00 Z
           M 361.00,263.00
           C 361.00,263.00 360.00,263.00 360.00,263.00
             360.00,263.00 361.00,264.00 361.00,264.00
             361.00,264.00 361.00,263.00 361.00,263.00 Z
           M 59.00,187.00
           C 61.40,170.00 75.57,141.97 85.58,128.00
             122.04,77.13 177.07,51.28 239.00,52.00
             265.82,52.32 300.01,62.85 323.00,76.45
             334.75,83.40 357.95,98.95 363.67,111.00
             370.90,126.20 359.12,144.18 342.00,142.67
             329.82,141.60 322.15,131.06 313.00,124.13
             300.38,114.57 286.03,107.52 271.00,102.67
             265.18,100.79 259.03,99.74 253.00,98.75
             204.13,90.75 156.12,111.33 125.67,150.00
             113.98,164.84 107.87,180.38 102.00,198.00
             109.05,191.52 123.09,178.32 132.00,175.93
             146.01,172.15 161.12,184.30 159.66,199.00
             159.27,202.98 157.49,207.73 155.20,211.00
             151.17,216.74 133.38,230.83 127.00,236.27
             127.00,236.27 98.00,260.87 98.00,260.87
             91.40,266.52 84.30,272.58 75.00,271.81
             62.29,270.76 58.45,263.14 51.63,254.00
             51.63,254.00 19.87,211.00 19.87,211.00
             14.89,204.34 6.78,195.45 6.09,187.00
             4.41,166.36 23.32,156.64 38.00,164.00
             45.49,167.75 53.22,180.27 59.00,187.00 Z" />
</svg>
